<svg xmlns="http://www.w3.org/2000/svg" width="16.003" height="14.413" viewBox="0 0 16.003 14.413">
  <g id="ic_password-eye_show" transform="translate(-4 -4.793)">
    <g id="noun_Eye_4168743" transform="translate(4 7)" opacity="0.7">
      <g id="Group_32099" data-name="Group 32099">
        <path id="Path_24767" data-name="Path 24767" d="M8,6C4.7,6,2.148,8.339.911,9.708a11.533,11.533,0,0,0-.823,1.008.5.5,0,0,0,0,.572s.236.338.649.813C1.9,13.433,4.533,16,8,16c3.556,0,6.242-2.7,7.353-4,.357-.418.558-.709.558-.709a.5.5,0,0,0,0-.572s-.22-.317-.609-.768C14.158,8.628,11.5,6,8,6ZM8,7c2.989,0,5.485,2.373,6.544,3.6a5.038,5.038,0,0,1,.321.4c-.083.109-.093.132-.273.344C13.559,12.555,11.032,15,8,15c-2.956,0-5.428-2.32-6.507-3.558A5.059,5.059,0,0,1,1.14,11a6.252,6.252,0,0,1,.513-.624C2.8,9.1,5.181,7,8,7ZM8,8a3,3,0,1,0,3,3A3,3,0,0,0,8,8ZM8,9a1.99,1.99,0,1,1-1.417.583A2,2,0,0,1,8,9Z" transform="translate(0.002 -6.002)" fill-rule="evenodd"/>
      </g>
    </g>
    <line id="Line_1423" data-name="Line 1423" x2="12" y2="13" transform="translate(6 5.5)" fill="none" stroke="#4b4b4b" stroke-linecap="round" stroke-width="1"/>
  </g>
</svg>
